<?xml version='1.0' encoding='us-ascii'?>
<svg height="239.30mm" viewBox="0.0 0.0 359.32 239.30" width="359.32mm" xmlns="http://www.w3.org/2000/svg" xmlns:cc="http://creativecommons.org/ns#" xmlns:dc="http://purl.org/dc/elements/1.1/" xmlns:inkscape="http://www.inkscape.org/namespaces/inkscape" xmlns:rdf="http://www.w3.org/1999/02/22-rdf-syntax-ns#" xmlns:svg="http://www.w3.org/2000/svg" xmlns:xlink="http://www.w3.org/1999/xlink">
<!--
FlexBox3 - Box with living hinge

Created with Boxes.py (https://festi.info/boxes.py)
Creation date: 2021-10-24 19:21:26
Command line (remove spaces between dashes): boxes FlexBox3 - -FingerJoint_angle=90.0 - -FingerJoint_style=rectangular - -FingerJoint_surroundingspaces=1 - -FingerJoint_edge_width=1.0 - -FingerJoint_finger=2.0 - -FingerJoint_play=0.0 - -FingerJoint_space=2.0 - -FingerJoint_width=1.0 - -Flex_stretch=1.05 - -Flex_connection=1.0 - -Flex_distance=0.5 - -Flex_width=5.0 - -x=100.0 - -y=100.0 - -outside=0 - -outside=1 - -z=100.0 - -h=10.0 - -radius=10.0 - -c=1.0 - -thickness=3.35 - -format=svg - -tabs=0.0 - -debug=0 - -labels=0 - -labels=1 - -reference=100 - -burn=0.1
Url: http://www.festi.info/FlexBox3?FingerJoint_angle=90.0&FingerJoint_style=rectangular&FingerJoint_surroundingspaces=1&FingerJoint_edge_width=1.0&FingerJoint_finger=2.0&FingerJoint_play=0.0&FingerJoint_space=2.0&FingerJoint_width=1.0&Flex_stretch=1.05&Flex_connection=1.0&Flex_distance=0.5&Flex_width=5.0&x=100.0&y=100.0&outside=0&outside=1&z=100.0&h=10.0&radius=10.0&c=1.0&thickness=3.35&format=svg&tabs=0.0&debug=0&labels=0&labels=1&reference=100&burn=0.1&render=1
SettingsUrl: http://www.festi.info/FlexBox3?FingerJoint_angle=90.0&FingerJoint_style=rectangular&FingerJoint_surroundingspaces=1&FingerJoint_edge_width=1.0&FingerJoint_finger=2.0&FingerJoint_play=0.0&FingerJoint_space=2.0&FingerJoint_width=1.0&Flex_stretch=1.05&Flex_connection=1.0&Flex_distance=0.5&Flex_width=5.0&x=100.0&y=100.0&outside=0&outside=1&z=100.0&h=10.0&radius=10.0&c=1.0&thickness=3.35&format=svg&tabs=0.0&debug=0&labels=0&labels=1&reference=100&burn=0.1
-->
<title>FlexBox3</title>
<metadata>
<rdf:RDF><cc:Work>
<dc:title>FlexBox - FlexBox3</dc:title>
<dc:date>2021-10-24 19:21:26</dc:date>
<dc:source>http://www.festi.info/FlexBox3?FingerJoint_angle=90.0&amp;FingerJoint_style=rectangular&amp;FingerJoint_surroundingspaces=1&amp;FingerJoint_edge_width=1.0&amp;FingerJoint_finger=2.0&amp;FingerJoint_play=0.0&amp;FingerJoint_space=2.0&amp;FingerJoint_width=1.0&amp;Flex_stretch=1.05&amp;Flex_connection=1.0&amp;Flex_distance=0.5&amp;Flex_width=5.0&amp;x=100.0&amp;y=100.0&amp;outside=0&amp;outside=1&amp;z=100.0&amp;h=10.0&amp;radius=10.0&amp;c=1.0&amp;thickness=3.35&amp;format=svg&amp;tabs=0.0&amp;debug=0&amp;labels=0&amp;labels=1&amp;reference=100&amp;burn=0.1&amp;render=1</dc:source>
<dc:description>Box with living hinge

Created with Boxes.py (https://festi.info/boxes.py)
Command line: boxes FlexBox3 --FingerJoint_angle=90.0 --FingerJoint_style=rectangular --FingerJoint_surroundingspaces=1 --FingerJoint_edge_width=1.0 --FingerJoint_finger=2.0 --FingerJoint_play=0.0 --FingerJoint_space=2.0 --FingerJoint_width=1.0 --Flex_stretch=1.05 --Flex_connection=1.0 --Flex_distance=0.5 --Flex_width=5.0 --x=100.0 --y=100.0 --outside=0 --outside=1 --z=100.0 --h=10.0 --radius=10.0 --c=1.0 --thickness=3.35 --format=svg --tabs=0.0 --debug=0 --labels=0 --labels=1 --reference=100 --burn=0.1
Url: http://www.festi.info/FlexBox3?FingerJoint_angle=90.0&amp;FingerJoint_style=rectangular&amp;FingerJoint_surroundingspaces=1&amp;FingerJoint_edge_width=1.0&amp;FingerJoint_finger=2.0&amp;FingerJoint_play=0.0&amp;FingerJoint_space=2.0&amp;FingerJoint_width=1.0&amp;Flex_stretch=1.05&amp;Flex_connection=1.0&amp;Flex_distance=0.5&amp;Flex_width=5.0&amp;x=100.0&amp;y=100.0&amp;outside=0&amp;outside=1&amp;z=100.0&amp;h=10.0&amp;radius=10.0&amp;c=1.0&amp;thickness=3.35&amp;format=svg&amp;tabs=0.0&amp;debug=0&amp;labels=0&amp;labels=1&amp;reference=100&amp;burn=0.1&amp;render=1
SettingsUrl: http://www.festi.info/FlexBox3?FingerJoint_angle=90.0&amp;FingerJoint_style=rectangular&amp;FingerJoint_surroundingspaces=1&amp;FingerJoint_edge_width=1.0&amp;FingerJoint_finger=2.0&amp;FingerJoint_play=0.0&amp;FingerJoint_space=2.0&amp;FingerJoint_width=1.0&amp;Flex_stretch=1.05&amp;Flex_connection=1.0&amp;Flex_distance=0.5&amp;Flex_width=5.0&amp;x=100.0&amp;y=100.0&amp;outside=0&amp;outside=1&amp;z=100.0&amp;h=10.0&amp;radius=10.0&amp;c=1.0&amp;thickness=3.35&amp;format=svg&amp;tabs=0.0&amp;debug=0&amp;labels=0&amp;labels=1&amp;reference=100&amp;burn=0.1
</dc:description>
</cc:Work></rdf:RDF></metadata>
<g id="p-0" style="fill:none;stroke-linecap:round;stroke-linejoin:round;">
  <path d="M 10.100 229.300 H 110.100 V 219.300 H 10.100 V 229.300 Z" stroke="rgb(0,0,0)" stroke-width="0.20" />
  <text alignment-baseline="hanging" font-size="10px" style="font-family: sans-serif ; font-weight: normal; font-style: normal; fill: rgb(0,0,0)" text-anchor="middle" transform="matrix( 1.000 0.000 0.000 1.000 60.100 219.300 )">100mm</text><text alignment-baseline="hanging" font-size="4px" style="font-family: sans-serif ; font-weight: normal; font-style: normal; fill: rgb(255,0,0)" text-anchor="middle" transform="matrix( 1.000 0.000 0.000 1.000 15.100 222.300 )" />
</g>
<g id="p-1" style="fill:none;stroke-linecap:round;stroke-linejoin:round;">
  <text alignment-baseline="hanging" font-size="4px" style="font-family: sans-serif ; font-weight: normal; font-style: normal; fill: rgb(255,0,0)" text-anchor="middle" transform="matrix( 1.000 0.000 0.000 1.000 105.886 161.075 )" /><path d="M 13.450 213.075 H 18.250 C 18.305 213.075 18.350 213.030 18.350 212.975 V 209.725 C 18.350 209.625 18.250 209.725 18.350 209.725 H 24.850 C 24.950 209.725 24.850 209.625 24.850 209.725 V 212.975 C 24.850 213.030 24.895 213.075 24.950 213.075 H 31.650 C 31.705 213.075 31.750 213.030 31.750 212.975 V 209.725 C 31.750 209.625 31.650 209.725 31.750 209.725 H 38.250 C 38.350 209.725 38.250 209.625 38.250 209.725 V 212.975 C 38.250 213.030 38.295 213.075 38.350 213.075 H 45.050 C 45.105 213.075 45.150 213.030 45.150 212.975 V 209.725 C 45.150 209.625 45.050 209.725 45.150 209.725 H 51.650 C 51.750 209.725 51.650 209.625 51.650 209.725 V 212.975 C 51.650 213.030 51.695 213.075 51.750 213.075 H 58.450 C 58.505 213.075 58.550 213.030 58.550 212.975 V 209.725 C 58.550 209.625 58.450 209.725 58.550 209.725 H 65.050 C 65.150 209.725 65.050 209.625 65.050 209.725 V 212.975 C 65.050 213.030 65.095 213.075 65.150 213.075 H 71.850 C 71.905 213.075 71.950 213.030 71.950 212.975 V 209.725 C 71.950 209.625 71.850 209.725 71.950 209.725 H 78.450 C 78.550 209.725 78.450 209.625 78.450 209.725 V 212.975 C 78.450 213.030 78.495 213.075 78.550 213.075 H 85.250 C 85.305 213.075 85.350 213.030 85.350 212.975 V 209.725 C 85.350 209.625 85.250 209.725 85.350 209.725 H 91.850 C 91.950 209.725 91.850 209.625 91.850 209.725 V 212.975 C 91.850 213.030 91.895 213.075 91.950 213.075 H 96.750 H 111.573 C 111.673 213.075 111.573 212.975 111.573 213.075 V 213.975 C 111.573 214.030 111.617 214.075 111.673 214.075 H 118.048 C 118.148 214.075 118.048 213.975 118.048 214.075 V 217.325 C 118.048 217.380 118.092 217.425 118.148 217.425 H 124.848 C 124.903 217.425 124.948 217.380 124.948 217.325 V 214.075 C 124.948 213.975 124.848 214.075 124.948 214.075 H 131.448 C 131.548 214.075 131.448 213.975 131.448 214.075 V 217.325 C 131.448 217.380 131.492 217.425 131.548 217.425 H 138.248 C 138.303 217.425 138.348 217.380 138.348 217.325 V 214.075 C 138.348 213.975 138.248 214.075 138.348 214.075 H 144.848 C 144.948 214.075 144.848 213.975 144.848 214.075 V 217.325 C 144.848 217.380 144.892 217.425 144.948 217.425 H 151.648 C 151.703 217.425 151.748 217.380 151.748 217.325 V 214.075 C 151.748 213.975 151.648 214.075 151.748 214.075 H 158.248 C 158.348 214.075 158.248 213.975 158.248 214.075 V 217.325 C 158.248 217.380 158.292 217.425 158.348 217.425 H 165.048 C 165.103 217.425 165.148 217.380 165.148 217.325 V 214.075 C 165.148 213.975 165.048 214.075 165.148 214.075 H 171.648 C 171.748 214.075 171.648 213.975 171.648 214.075 V 217.325 C 171.648 217.380 171.692 217.425 171.748 217.425 H 178.448 C 178.503 217.425 178.548 217.380 178.548 217.325 V 214.075 C 178.548 213.975 178.448 214.075 178.548 214.075 H 185.048 C 185.148 214.075 185.048 213.975 185.048 214.075 V 217.325 C 185.048 217.380 185.092 217.425 185.148 217.425 H 191.848 C 191.903 217.425 191.948 217.380 191.948 217.325 V 214.075 C 191.948 213.975 191.848 214.075 191.948 214.075 H 198.323 C 198.378 214.075 198.423 214.030 198.423 213.975 V 206.625 C 198.423 206.525 198.323 206.625 198.423 206.625 H 201.673 C 201.728 206.625 201.773 206.580 201.773 206.525 V 199.825 C 201.773 199.770 201.728 199.725 201.673 199.725 H 198.423 C 198.323 199.725 198.423 199.825 198.423 199.725 V 193.225 C 198.423 193.125 198.323 193.225 198.423 193.225 H 201.673 C 201.728 193.225 201.773 193.180 201.773 193.125 V 186.425 C 201.773 186.370 201.728 186.325 201.673 186.325 H 198.423 C 198.323 186.325 198.423 186.425 198.423 186.325 V 179.825 C 198.423 179.725 198.323 179.825 198.423 179.825 H 201.673 C 201.728 179.825 201.773 179.780 201.773 179.725 V 173.025 C 201.773 172.970 201.728 172.925 201.673 172.925 H 198.423 C 198.323 172.925 198.423 173.025 198.423 172.925 V 166.425 C 198.423 166.325 198.323 166.425 198.423 166.425 H 201.673 C 201.728 166.425 201.773 166.380 201.773 166.325 V 159.625 C 201.773 159.570 201.728 159.525 201.673 159.525 H 198.423 C 198.323 159.525 198.423 159.625 198.423 159.525 V 153.025 C 198.423 152.925 198.323 153.025 198.423 153.025 H 201.673 C 201.728 153.025 201.773 152.980 201.773 152.925 V 146.225 C 201.773 146.170 201.728 146.125 201.673 146.125 H 198.423 C 198.323 146.125 198.423 146.225 198.423 146.125 V 139.625 C 198.423 139.525 198.323 139.625 198.423 139.625 H 201.673 C 201.728 139.625 201.773 139.580 201.773 139.525 V 132.825 C 201.773 132.770 201.728 132.725 201.673 132.725 H 198.423 C 198.323 132.725 198.423 132.825 198.423 132.725 V 126.225 C 198.423 126.125 198.323 126.225 198.423 126.225 H 201.673 C 201.728 126.225 201.773 126.180 201.773 126.125 V 119.425 C 201.773 119.370 201.728 119.325 201.673 119.325 H 198.423 C 198.323 119.325 198.423 119.425 198.423 119.325 V 111.975 C 198.423 111.920 198.378 111.875 198.323 111.875 H 191.948 C 191.848 111.875 191.948 111.975 191.948 111.875 V 108.625 C 191.948 108.570 191.903 108.525 191.848 108.525 H 185.148 C 185.092 108.525 185.048 108.570 185.048 108.625 V 111.875 C 185.048 111.975 185.148 111.875 185.048 111.875 H 178.548 C 178.448 111.875 178.548 111.975 178.548 111.875 V 108.625 C 178.548 108.570 178.503 108.525 178.448 108.525 H 171.748 C 171.692 108.525 171.648 108.570 171.648 108.625 V 111.875 C 171.648 111.975 171.748 111.875 171.648 111.875 H 165.148 C 165.048 111.875 165.148 111.975 165.148 111.875 V 108.625 C 165.148 108.570 165.103 108.525 165.048 108.525 H 158.348 C 158.292 108.525 158.248 108.570 158.248 108.625 V 111.875 C 158.248 111.975 158.348 111.875 158.248 111.875 H 151.748 C 151.648 111.875 151.748 111.975 151.748 111.875 V 108.625 C 151.748 108.570 151.703 108.525 151.648 108.525 H 144.948 C 144.892 108.525 144.848 108.570 144.848 108.625 V 111.875 C 144.848 111.975 144.948 111.875 144.848 111.875 H 138.348 C 138.248 111.875 138.348 111.975 138.348 111.875 V 108.625 C 138.348 108.570 138.303 108.525 138.248 108.525 H 131.548 C 131.492 108.525 131.448 108.570 131.448 108.625 V 111.875 C 131.448 111.975 131.548 111.875 131.448 111.875 H 124.948 C 124.848 111.875 124.948 111.975 124.948 111.875 V 108.625 C 124.948 108.570 124.903 108.525 124.848 108.525 H 118.148 C 118.092 108.525 118.048 108.570 118.048 108.625 V 111.875 C 118.048 111.975 118.148 111.875 118.048 111.875 H 111.673 C 111.617 111.875 111.573 111.920 111.573 111.975 V 112.875 C 111.573 112.975 111.673 112.875 111.573 112.875 H 96.750 H 91.950 C 91.895 112.875 91.850 112.920 91.850 112.975 V 116.225 C 91.850 116.325 91.950 116.225 91.850 116.225 H 85.350 C 85.250 116.225 85.350 116.325 85.350 116.225 V 112.975 C 85.350 112.920 85.305 112.875 85.250 112.875 H 78.550 C 78.495 112.875 78.450 112.920 78.450 112.975 V 116.225 C 78.450 116.325 78.550 116.225 78.450 116.225 H 71.950 C 71.850 116.225 71.950 116.325 71.950 116.225 V 112.975 C 71.950 112.920 71.905 112.875 71.850 112.875 H 65.150 C 65.095 112.875 65.050 112.920 65.050 112.975 V 116.225 C 65.050 116.325 65.150 116.225 65.050 116.225 H 58.550 C 58.450 116.225 58.550 116.325 58.550 116.225 V 112.975 C 58.550 112.920 58.505 112.875 58.450 112.875 H 51.750 C 51.695 112.875 51.650 112.920 51.650 112.975 V 116.225 C 51.650 116.325 51.750 116.225 51.650 116.225 H 45.150 C 45.050 116.225 45.150 116.325 45.150 116.225 V 112.975 C 45.150 112.920 45.105 112.875 45.050 112.875 H 38.350 C 38.295 112.875 38.250 112.920 38.250 112.975 V 116.225 C 38.250 116.325 38.350 116.225 38.250 116.225 H 31.750 C 31.650 116.225 31.750 116.325 31.750 116.225 V 112.975 C 31.750 112.920 31.705 112.875 31.650 112.875 H 24.950 C 24.895 112.875 24.850 112.920 24.850 112.975 V 116.225 C 24.850 116.325 24.950 116.225 24.850 116.225 H 18.350 C 18.250 116.225 18.350 116.325 18.350 116.225 V 112.975 C 18.350 112.920 18.305 112.875 18.250 112.875 H 13.450 C 13.395 112.875 13.350 112.920 13.350 112.975 V 116.325 V 126.025 C 13.350 126.125 13.450 126.025 13.350 126.025 H 10.100 C 10.045 126.025 10.000 126.070 10.000 126.125 V 132.825 C 10.000 132.880 10.045 132.925 10.100 132.925 H 13.350 C 13.450 132.925 13.350 132.825 13.350 132.925 V 139.425 C 13.350 139.525 13.450 139.425 13.350 139.425 H 10.100 C 10.045 139.425 10.000 139.470 10.000 139.525 V 146.225 C 10.000 146.280 10.045 146.325 10.100 146.325 H 13.350 C 13.450 146.325 13.350 146.225 13.350 146.325 V 152.825 C 13.350 152.925 13.450 152.825 13.350 152.825 H 10.100 C 10.045 152.825 10.000 152.870 10.000 152.925 V 159.625 C 10.000 159.680 10.045 159.725 10.100 159.725 H 13.350 C 13.450 159.725 13.350 159.625 13.350 159.725 V 166.225 C 13.350 166.325 13.450 166.225 13.350 166.225 H 10.100 C 10.045 166.225 10.000 166.270 10.000 166.325 V 173.025 C 10.000 173.080 10.045 173.125 10.100 173.125 H 13.350 C 13.450 173.125 13.350 173.025 13.350 173.125 V 179.625 C 13.350 179.725 13.450 179.625 13.350 179.625 H 10.100 C 10.045 179.625 10.000 179.670 10.000 179.725 V 186.425 C 10.000 186.480 10.045 186.525 10.100 186.525 H 13.350 C 13.450 186.525 13.350 186.425 13.350 186.525 V 193.025 C 13.350 193.125 13.450 193.025 13.350 193.025 H 10.100 C 10.045 193.025 10.000 193.070 10.000 193.125 V 199.825 C 10.000 199.880 10.045 199.925 10.100 199.925 H 13.350 C 13.450 199.925 13.350 199.825 13.350 199.925 V 209.625 V 212.975 C 13.350 213.030 13.395 213.075 13.450 213.075" stroke="rgb(0,0,0)" stroke-width="0.20" />
  <path d="M 99.186 213.075 V 193.705 M 99.186 190.355 V 154.965 M 99.186 151.615 V 116.225 M 100.861 112.875 V 132.245 M 100.861 135.595 V 170.985 M 100.861 174.335 V 209.725 M 102.536 213.075 V 193.705 M 102.536 190.355 V 154.965 M 102.536 151.615 V 116.225 M 104.211 112.875 V 132.245 M 104.211 135.595 V 170.985 M 104.211 174.335 V 209.725 M 105.886 213.075 V 193.705 M 105.886 190.355 V 154.965 M 105.886 151.615 V 116.225 M 107.561 112.875 V 132.245 M 107.561 135.595 V 170.985 M 107.561 174.335 V 209.725 M 109.236 213.075 V 193.705 M 109.236 190.355 V 154.965 M 109.236 151.615 V 116.225" stroke="rgb(0,0,0)" stroke-width="0.20" />
</g>
<g id="p-2" style="fill:none;stroke-linecap:round;stroke-linejoin:round;">
  <text alignment-baseline="hanging" font-size="4px" style="font-family: sans-serif ; font-weight: normal; font-style: normal; fill: rgb(255,0,0)" text-anchor="middle" transform="matrix( 1.000 0.000 0.000 1.000 253.548 165.425 )" /><path d="M 206.898 217.425 H 216.698 C 216.753 217.425 216.798 217.380 216.798 217.325 V 214.075 C 216.798 213.975 216.698 214.075 216.798 214.075 H 223.298 C 223.398 214.075 223.298 213.975 223.298 214.075 V 217.325 C 223.298 217.380 223.342 217.425 223.398 217.425 H 230.098 C 230.153 217.425 230.198 217.380 230.198 217.325 V 214.075 C 230.198 213.975 230.098 214.075 230.198 214.075 H 236.698 C 236.798 214.075 236.698 213.975 236.698 214.075 V 217.325 C 236.698 217.380 236.742 217.425 236.798 217.425 H 243.498 C 243.553 217.425 243.598 217.380 243.598 217.325 V 214.075 C 243.598 213.975 243.498 214.075 243.598 214.075 H 250.098 C 250.198 214.075 250.098 213.975 250.098 214.075 V 217.325 C 250.098 217.380 250.142 217.425 250.198 217.425 H 256.898 C 256.953 217.425 256.998 217.380 256.998 217.325 V 214.075 C 256.998 213.975 256.898 214.075 256.998 214.075 H 263.498 C 263.598 214.075 263.498 213.975 263.498 214.075 V 217.325 C 263.498 217.380 263.542 217.425 263.598 217.425 H 270.298 C 270.353 217.425 270.398 217.380 270.398 217.325 V 214.075 C 270.398 213.975 270.298 214.075 270.398 214.075 H 276.898 C 276.998 214.075 276.898 213.975 276.898 214.075 V 217.325 C 276.898 217.380 276.942 217.425 276.998 217.425 H 283.698 C 283.753 217.425 283.798 217.380 283.798 217.325 V 214.075 C 283.798 213.975 283.698 214.075 283.798 214.075 H 290.298 C 290.398 214.075 290.298 213.975 290.298 214.075 V 217.325 C 290.298 217.380 290.342 217.425 290.398 217.425 H 300.198 H 303.548 C 303.603 217.425 303.648 217.380 303.648 217.325 V 213.975 V 204.175 C 303.648 204.120 303.603 204.075 303.548 204.075 H 300.298 C 300.198 204.075 300.298 204.175 300.298 204.075 V 197.575 C 300.298 197.475 300.198 197.575 300.298 197.575 H 303.548 C 303.603 197.575 303.648 197.530 303.648 197.475 V 190.775 C 303.648 190.720 303.603 190.675 303.548 190.675 H 300.298 C 300.198 190.675 300.298 190.775 300.298 190.675 V 184.175 C 300.298 184.075 300.198 184.175 300.298 184.175 H 303.548 C 303.603 184.175 303.648 184.130 303.648 184.075 V 177.375 C 303.648 177.320 303.603 177.275 303.548 177.275 H 300.298 C 300.198 177.275 300.298 177.375 300.298 177.275 V 170.775 C 300.298 170.675 300.198 170.775 300.298 170.775 H 303.548 C 303.603 170.775 303.648 170.730 303.648 170.675 V 163.975 C 303.648 163.920 303.603 163.875 303.548 163.875 H 300.298 C 300.198 163.875 300.298 163.975 300.298 163.875 V 157.375 C 300.298 157.275 300.198 157.375 300.298 157.375 H 303.548 C 303.603 157.375 303.648 157.330 303.648 157.275 V 150.575 C 303.648 150.520 303.603 150.475 303.548 150.475 H 300.298 C 300.198 150.475 300.298 150.575 300.298 150.475 V 143.975 C 300.298 143.875 300.198 143.975 300.298 143.975 H 303.548 C 303.603 143.975 303.648 143.930 303.648 143.875 V 137.175 C 303.648 137.120 303.603 137.075 303.548 137.075 H 300.298 C 300.198 137.075 300.298 137.175 300.298 137.075 V 130.575 C 300.298 130.475 300.198 130.575 300.298 130.575 H 303.548 C 303.603 130.575 303.648 130.530 303.648 130.475 V 120.675 V 117.325 C 303.648 117.270 303.603 117.225 303.548 117.225 H 300.198 H 290.398 C 290.342 117.225 290.298 117.270 290.298 117.325 V 120.575 C 290.298 120.675 290.398 120.575 290.298 120.575 H 283.798 C 283.698 120.575 283.798 120.675 283.798 120.575 V 117.325 C 283.798 117.270 283.753 117.225 283.698 117.225 H 276.998 C 276.942 117.225 276.898 117.270 276.898 117.325 V 120.575 C 276.898 120.675 276.998 120.575 276.898 120.575 H 270.398 C 270.298 120.575 270.398 120.675 270.398 120.575 V 117.325 C 270.398 117.270 270.353 117.225 270.298 117.225 H 263.598 C 263.542 117.225 263.498 117.270 263.498 117.325 V 120.575 C 263.498 120.675 263.598 120.575 263.498 120.575 H 256.998 C 256.898 120.575 256.998 120.675 256.998 120.575 V 117.325 C 256.998 117.270 256.953 117.225 256.898 117.225 H 250.198 C 250.142 117.225 250.098 117.270 250.098 117.325 V 120.575 C 250.098 120.675 250.198 120.575 250.098 120.575 H 243.598 C 243.498 120.575 243.598 120.675 243.598 120.575 V 117.325 C 243.598 117.270 243.553 117.225 243.498 117.225 H 236.798 C 236.742 117.225 236.698 117.270 236.698 117.325 V 120.575 C 236.698 120.675 236.798 120.575 236.698 120.575 H 230.198 C 230.098 120.575 230.198 120.675 230.198 120.575 V 117.325 C 230.198 117.270 230.153 117.225 230.098 117.225 H 223.398 C 223.342 117.225 223.298 117.270 223.298 117.325 V 120.575 C 223.298 120.675 223.398 120.575 223.298 120.575 H 216.798 C 216.698 120.575 216.798 120.675 216.798 120.575 V 117.325 C 216.798 117.270 216.753 117.225 216.698 117.225 H 206.898 H 203.548 C 203.492 117.225 203.448 117.270 203.448 117.325 V 120.675 V 130.475 C 203.448 130.530 203.492 130.575 203.548 130.575 H 206.798 C 206.898 130.575 206.798 130.475 206.798 130.575 V 137.075 C 206.798 137.175 206.898 137.075 206.798 137.075 H 203.548 C 203.492 137.075 203.448 137.120 203.448 137.175 V 143.875 C 203.448 143.930 203.492 143.975 203.548 143.975 H 206.798 C 206.898 143.975 206.798 143.875 206.798 143.975 V 150.475 C 206.798 150.575 206.898 150.475 206.798 150.475 H 203.548 C 203.492 150.475 203.448 150.520 203.448 150.575 V 157.275 C 203.448 157.330 203.492 157.375 203.548 157.375 H 206.798 C 206.898 157.375 206.798 157.275 206.798 157.375 V 163.875 C 206.798 163.975 206.898 163.875 206.798 163.875 H 203.548 C 203.492 163.875 203.448 163.920 203.448 163.975 V 170.675 C 203.448 170.730 203.492 170.775 203.548 170.775 H 206.798 C 206.898 170.775 206.798 170.675 206.798 170.775 V 177.275 C 206.798 177.375 206.898 177.275 206.798 177.275 H 203.548 C 203.492 177.275 203.448 177.320 203.448 177.375 V 184.075 C 203.448 184.130 203.492 184.175 203.548 184.175 H 206.798 C 206.898 184.175 206.798 184.075 206.798 184.175 V 190.675 C 206.798 190.775 206.898 190.675 206.798 190.675 H 203.548 C 203.492 190.675 203.448 190.720 203.448 190.775 V 197.475 C 203.448 197.530 203.492 197.575 203.548 197.575 H 206.798 C 206.898 197.575 206.798 197.475 206.798 197.575 V 204.075 C 206.798 204.175 206.898 204.075 206.798 204.075 H 203.548 C 203.492 204.075 203.448 204.120 203.448 204.175 V 213.975 V 217.325 C 203.448 217.380 203.492 217.425 203.548 217.425 H 206.898" stroke="rgb(0,0,0)" stroke-width="0.20" />
</g>
<g id="p-3" style="fill:none;stroke-linecap:round;stroke-linejoin:round;">
  <text alignment-baseline="hanging" font-size="4px" style="font-family: sans-serif ; font-weight: normal; font-style: normal; fill: rgb(255,0,0)" text-anchor="middle" transform="matrix( 1.000 0.000 0.000 1.000 312.098 161.075 )" /><path d="M 308.773 217.425 H 312.098 C 312.153 217.425 312.198 217.380 312.198 217.325 V 214.075 C 312.198 213.975 312.098 214.075 312.198 214.075 H 315.348 C 315.448 214.075 315.348 213.975 315.348 214.075 V 217.325 C 315.348 217.380 315.392 217.425 315.448 217.425 H 318.773 C 318.828 217.425 318.873 217.380 318.873 217.325 V 213.975 V 111.975 V 108.625 C 318.873 108.570 318.828 108.525 318.773 108.525 H 315.448 C 315.392 108.525 315.348 108.570 315.348 108.625 V 111.875 C 315.348 111.975 315.448 111.875 315.348 111.875 H 312.198 C 312.098 111.875 312.198 111.975 312.198 111.875 V 108.625 C 312.198 108.570 312.153 108.525 312.098 108.525 H 308.773 H 305.423 C 305.367 108.525 305.323 108.570 305.323 108.625 V 111.975 V 119.425 C 305.323 119.480 305.367 119.525 305.423 119.525 H 308.673 C 308.773 119.525 308.673 119.425 308.673 119.525 V 126.025 C 308.673 126.125 308.773 126.025 308.673 126.025 H 305.423 C 305.367 126.025 305.323 126.070 305.323 126.125 V 132.825 C 305.323 132.880 305.367 132.925 305.423 132.925 H 308.673 C 308.773 132.925 308.673 132.825 308.673 132.925 V 139.425 C 308.673 139.525 308.773 139.425 308.673 139.425 H 305.423 C 305.367 139.425 305.323 139.470 305.323 139.525 V 146.225 C 305.323 146.280 305.367 146.325 305.423 146.325 H 308.673 C 308.773 146.325 308.673 146.225 308.673 146.325 V 152.825 C 308.673 152.925 308.773 152.825 308.673 152.825 H 305.423 C 305.367 152.825 305.323 152.870 305.323 152.925 V 159.625 C 305.323 159.680 305.367 159.725 305.423 159.725 H 308.673 C 308.773 159.725 308.673 159.625 308.673 159.725 V 166.225 C 308.673 166.325 308.773 166.225 308.673 166.225 H 305.423 C 305.367 166.225 305.323 166.270 305.323 166.325 V 173.025 C 305.323 173.080 305.367 173.125 305.423 173.125 H 308.673 C 308.773 173.125 308.673 173.025 308.673 173.125 V 179.625 C 308.673 179.725 308.773 179.625 308.673 179.625 H 305.423 C 305.367 179.625 305.323 179.670 305.323 179.725 V 186.425 C 305.323 186.480 305.367 186.525 305.423 186.525 H 308.673 C 308.773 186.525 308.673 186.425 308.673 186.525 V 193.025 C 308.673 193.125 308.773 193.025 308.673 193.025 H 305.423 C 305.367 193.025 305.323 193.070 305.323 193.125 V 199.825 C 305.323 199.880 305.367 199.925 305.423 199.925 H 308.673 C 308.773 199.925 308.673 199.825 308.673 199.925 V 206.425 C 308.673 206.525 308.773 206.425 308.673 206.425 H 305.423 C 305.367 206.425 305.323 206.470 305.323 206.525 V 213.975 V 217.325 C 305.323 217.380 305.367 217.425 305.423 217.425 H 308.773" stroke="rgb(0,0,0)" stroke-width="0.20" />
</g>
<g id="p-4" style="fill:none;stroke-linecap:round;stroke-linejoin:round;">
  <text alignment-baseline="hanging" font-size="4px" style="font-family: sans-serif ; font-weight: normal; font-style: normal; fill: rgb(255,0,0)" text-anchor="middle" transform="matrix( 1.000 0.000 0.000 1.000 327.323 163.750 )" /><path d="M 320.648 217.425 C 323.009 217.425 325.328 216.804 327.373 215.623 C 329.417 214.443 331.115 212.745 332.296 210.700 C 333.476 208.655 334.098 206.336 334.098 203.975 V 197.500 C 334.098 197.445 334.053 197.400 333.998 197.400 H 330.748 C 330.648 197.400 330.748 197.500 330.748 197.400 V 190.900 C 330.748 190.800 330.648 190.900 330.748 190.900 H 333.998 C 334.053 190.900 334.098 190.855 334.098 190.800 V 184.100 C 334.098 184.045 334.053 184.000 333.998 184.000 H 330.748 C 330.648 184.000 330.748 184.100 330.748 184.000 V 177.500 C 330.748 177.400 330.648 177.500 330.748 177.500 H 333.998 C 334.053 177.500 334.098 177.455 334.098 177.400 V 170.700 C 334.098 170.645 334.053 170.600 333.998 170.600 H 330.748 C 330.648 170.600 330.748 170.700 330.748 170.600 V 164.100 C 330.748 164.000 330.648 164.100 330.748 164.100 H 333.998 C 334.053 164.100 334.098 164.055 334.098 164.000 V 157.300 C 334.098 157.245 334.053 157.200 333.998 157.200 H 330.748 C 330.648 157.200 330.748 157.300 330.748 157.200 V 150.700 C 330.748 150.600 330.648 150.700 330.748 150.700 H 333.998 C 334.053 150.700 334.098 150.655 334.098 150.600 V 143.900 C 334.098 143.845 334.053 143.800 333.998 143.800 H 330.748 C 330.648 143.800 330.748 143.900 330.748 143.800 V 137.300 C 330.748 137.200 330.648 137.300 330.748 137.300 H 333.998 C 334.053 137.300 334.098 137.255 334.098 137.200 V 130.500 C 334.098 130.445 334.053 130.400 333.998 130.400 H 330.748 C 330.648 130.400 330.748 130.500 330.748 130.400 V 123.900 C 330.748 123.800 330.648 123.900 330.748 123.900 H 333.998 C 334.053 123.900 334.098 123.855 334.098 123.800 V 117.325 C 334.098 117.270 334.053 117.225 333.998 117.225 H 330.648 H 327.423 C 327.323 117.225 327.423 117.325 327.423 117.225 V 113.975 C 327.423 113.920 327.378 113.875 327.323 113.875 H 323.973 C 323.917 113.875 323.873 113.920 323.873 113.975 V 117.225 C 323.873 117.325 323.973 117.225 323.873 117.225 H 320.648 C 320.592 117.225 320.548 117.270 320.548 117.325 V 217.325 C 320.548 217.380 320.592 217.425 320.648 217.425" stroke="rgb(0,0,0)" stroke-width="0.20" />
</g>
<g id="p-5" style="fill:none;stroke-linecap:round;stroke-linejoin:round;">
  <text alignment-baseline="hanging" font-size="4px" style="font-family: sans-serif ; font-weight: normal; font-style: normal; fill: rgb(255,0,0)" text-anchor="middle" transform="matrix( 1.000 0.000 0.000 1.000 342.548 163.750 )" /><path d="M 349.223 217.425 C 346.862 217.425 344.542 216.804 342.498 215.623 C 340.453 214.443 338.755 212.745 337.575 210.700 C 336.394 208.655 335.773 206.336 335.773 203.975 V 197.500 C 335.773 197.445 335.817 197.400 335.873 197.400 H 339.123 C 339.223 197.400 339.123 197.500 339.123 197.400 V 190.900 C 339.123 190.800 339.223 190.900 339.123 190.900 H 335.873 C 335.817 190.900 335.773 190.855 335.773 190.800 V 184.100 C 335.773 184.045 335.817 184.000 335.873 184.000 H 339.123 C 339.223 184.000 339.123 184.100 339.123 184.000 V 177.500 C 339.123 177.400 339.223 177.500 339.123 177.500 H 335.873 C 335.817 177.500 335.773 177.455 335.773 177.400 V 170.700 C 335.773 170.645 335.817 170.600 335.873 170.600 H 339.123 C 339.223 170.600 339.123 170.700 339.123 170.600 V 164.100 C 339.123 164.000 339.223 164.100 339.123 164.100 H 335.873 C 335.817 164.100 335.773 164.055 335.773 164.000 V 157.300 C 335.773 157.245 335.817 157.200 335.873 157.200 H 339.123 C 339.223 157.200 339.123 157.300 339.123 157.200 V 150.700 C 339.123 150.600 339.223 150.700 339.123 150.700 H 335.873 C 335.817 150.700 335.773 150.655 335.773 150.600 V 143.900 C 335.773 143.845 335.817 143.800 335.873 143.800 H 339.123 C 339.223 143.800 339.123 143.900 339.123 143.800 V 137.300 C 339.123 137.200 339.223 137.300 339.123 137.300 H 335.873 C 335.817 137.300 335.773 137.255 335.773 137.200 V 130.500 C 335.773 130.445 335.817 130.400 335.873 130.400 H 339.123 C 339.223 130.400 339.123 130.500 339.123 130.400 V 123.900 C 339.123 123.800 339.223 123.900 339.123 123.900 H 335.873 C 335.817 123.900 335.773 123.855 335.773 123.800 V 117.325 C 335.773 117.270 335.817 117.225 335.873 117.225 H 339.223 H 342.448 C 342.548 117.225 342.448 117.325 342.448 117.225 V 113.975 C 342.448 113.920 342.492 113.875 342.548 113.875 H 345.898 C 345.953 113.875 345.998 113.920 345.998 113.975 V 117.225 C 345.998 117.325 345.898 117.225 345.998 117.225 H 349.223 C 349.278 117.225 349.323 117.270 349.323 117.325 V 217.325 C 349.323 217.380 349.278 217.425 349.223 217.425" stroke="rgb(0,0,0)" stroke-width="0.20" />
</g>
<g id="p-6" style="fill:none;stroke-linecap:round;stroke-linejoin:round;">
  <text alignment-baseline="hanging" font-size="4px" style="font-family: sans-serif ; font-weight: normal; font-style: normal; fill: rgb(255,0,0)" text-anchor="middle" transform="matrix( 1.000 0.000 0.000 1.000 60.100 56.525 )" /><path d="M 13.450 103.500 H 23.150 C 23.250 103.500 23.150 103.400 23.150 103.500 V 106.750 C 23.150 106.805 23.195 106.850 23.250 106.850 H 29.950 C 30.005 106.850 30.050 106.805 30.050 106.750 V 103.500 C 30.050 103.400 29.950 103.500 30.050 103.500 H 36.550 C 36.650 103.500 36.550 103.400 36.550 103.500 V 106.750 C 36.550 106.805 36.595 106.850 36.650 106.850 H 43.350 C 43.405 106.850 43.450 106.805 43.450 106.750 V 103.500 C 43.450 103.400 43.350 103.500 43.450 103.500 H 49.950 C 50.050 103.500 49.950 103.400 49.950 103.500 V 106.750 C 49.950 106.805 49.995 106.850 50.050 106.850 H 56.750 C 56.805 106.850 56.850 106.805 56.850 106.750 V 103.500 C 56.850 103.400 56.750 103.500 56.850 103.500 H 63.350 C 63.450 103.500 63.350 103.400 63.350 103.500 V 106.750 C 63.350 106.805 63.395 106.850 63.450 106.850 H 70.150 C 70.205 106.850 70.250 106.805 70.250 106.750 V 103.500 C 70.250 103.400 70.150 103.500 70.250 103.500 H 76.750 C 76.850 103.500 76.750 103.400 76.750 103.500 V 106.750 C 76.750 106.805 76.795 106.850 76.850 106.850 H 83.550 C 83.605 106.850 83.650 106.805 83.650 106.750 V 103.500 C 83.650 103.400 83.550 103.500 83.650 103.500 H 90.150 C 90.250 103.500 90.150 103.400 90.150 103.500 V 106.750 C 90.150 106.805 90.195 106.850 90.250 106.850 H 96.950 C 97.005 106.850 97.050 106.805 97.050 106.750 V 103.500 C 97.050 103.400 96.950 103.500 97.050 103.500 H 106.750 C 106.805 103.500 106.850 103.455 106.850 103.400 V 98.700 C 106.850 98.600 106.750 98.700 106.850 98.700 H 110.100 C 110.155 98.700 110.200 98.655 110.200 98.600 V 91.900 C 110.200 91.845 110.155 91.800 110.100 91.800 H 106.850 C 106.750 91.800 106.850 91.900 106.850 91.800 V 85.300 C 106.850 85.200 106.750 85.300 106.850 85.300 H 110.100 C 110.155 85.300 110.200 85.255 110.200 85.200 V 78.500 C 110.200 78.445 110.155 78.400 110.100 78.400 H 106.850 C 106.750 78.400 106.850 78.500 106.850 78.400 V 71.900 C 106.850 71.800 106.750 71.900 106.850 71.900 H 110.100 C 110.155 71.900 110.200 71.855 110.200 71.800 V 65.100 C 110.200 65.045 110.155 65.000 110.100 65.000 H 106.850 C 106.750 65.000 106.850 65.100 106.850 65.000 V 58.500 C 106.850 58.400 106.750 58.500 106.850 58.500 H 110.100 C 110.155 58.500 110.200 58.455 110.200 58.400 V 51.700 C 110.200 51.645 110.155 51.600 110.100 51.600 H 106.850 C 106.750 51.600 106.850 51.700 106.850 51.600 V 45.100 C 106.850 45.000 106.750 45.100 106.850 45.100 H 110.100 C 110.155 45.100 110.200 45.055 110.200 45.000 V 38.300 C 110.200 38.245 110.155 38.200 110.100 38.200 H 106.850 C 106.750 38.200 106.850 38.300 106.850 38.200 V 31.700 C 106.850 31.600 106.750 31.700 106.850 31.700 H 110.100 C 110.155 31.700 110.200 31.655 110.200 31.600 V 24.900 C 110.200 24.845 110.155 24.800 110.100 24.800 H 106.850 C 106.750 24.800 106.850 24.900 106.850 24.800 V 20.100 C 106.850 18.327 106.383 16.585 105.497 15.050 C 104.610 13.515 103.335 12.240 101.800 11.353 C 100.265 10.467 98.523 10.000 96.750 10.000 H 13.450 C 13.395 10.000 13.350 10.045 13.350 10.100 V 19.800 C 13.350 19.900 13.450 19.800 13.350 19.800 H 10.100 C 10.045 19.800 10.000 19.845 10.000 19.900 V 26.600 C 10.000 26.655 10.045 26.700 10.100 26.700 H 13.350 C 13.450 26.700 13.350 26.600 13.350 26.700 V 33.200 C 13.350 33.300 13.450 33.200 13.350 33.200 H 10.100 C 10.045 33.200 10.000 33.245 10.000 33.300 V 40.000 C 10.000 40.055 10.045 40.100 10.100 40.100 H 13.350 C 13.450 40.100 13.350 40.000 13.350 40.100 V 46.600 C 13.350 46.700 13.450 46.600 13.350 46.600 H 10.100 C 10.045 46.600 10.000 46.645 10.000 46.700 V 53.400 C 10.000 53.455 10.045 53.500 10.100 53.500 H 13.350 C 13.450 53.500 13.350 53.400 13.350 53.500 V 60.000 C 13.350 60.100 13.450 60.000 13.350 60.000 H 10.100 C 10.045 60.000 10.000 60.045 10.000 60.100 V 66.800 C 10.000 66.855 10.045 66.900 10.100 66.900 H 13.350 C 13.450 66.900 13.350 66.800 13.350 66.900 V 73.400 C 13.350 73.500 13.450 73.400 13.350 73.400 H 10.100 C 10.045 73.400 10.000 73.445 10.000 73.500 V 80.200 C 10.000 80.255 10.045 80.300 10.100 80.300 H 13.350 C 13.450 80.300 13.350 80.200 13.350 80.300 V 86.800 C 13.350 86.900 13.450 86.800 13.350 86.800 H 10.100 C 10.045 86.800 10.000 86.845 10.000 86.900 V 93.600 C 10.000 93.655 10.045 93.700 10.100 93.700 H 13.350 C 13.450 93.700 13.350 93.600 13.350 93.700 V 103.400 C 13.350 103.455 13.395 103.500 13.450 103.500" stroke="rgb(0,0,0)" stroke-width="0.20" />
</g>
<g id="p-7" style="fill:none;stroke-linecap:round;stroke-linejoin:round;">
  <text alignment-baseline="hanging" font-size="4px" style="font-family: sans-serif ; font-weight: normal; font-style: normal; fill: rgb(255,0,0)" text-anchor="middle" transform="matrix( 1.000 0.000 0.000 1.000 161.975 56.525 )" /><path d="M 208.625 103.500 H 198.925 C 198.825 103.500 198.925 103.400 198.925 103.500 V 106.750 C 198.925 106.805 198.880 106.850 198.825 106.850 H 192.125 C 192.070 106.850 192.025 106.805 192.025 106.750 V 103.500 C 192.025 103.400 192.125 103.500 192.025 103.500 H 185.525 C 185.425 103.500 185.525 103.400 185.525 103.500 V 106.750 C 185.525 106.805 185.480 106.850 185.425 106.850 H 178.725 C 178.670 106.850 178.625 106.805 178.625 106.750 V 103.500 C 178.625 103.400 178.725 103.500 178.625 103.500 H 172.125 C 172.025 103.500 172.125 103.400 172.125 103.500 V 106.750 C 172.125 106.805 172.080 106.850 172.025 106.850 H 165.325 C 165.270 106.850 165.225 106.805 165.225 106.750 V 103.500 C 165.225 103.400 165.325 103.500 165.225 103.500 H 158.725 C 158.625 103.500 158.725 103.400 158.725 103.500 V 106.750 C 158.725 106.805 158.680 106.850 158.625 106.850 H 151.925 C 151.870 106.850 151.825 106.805 151.825 106.750 V 103.500 C 151.825 103.400 151.925 103.500 151.825 103.500 H 145.325 C 145.225 103.500 145.325 103.400 145.325 103.500 V 106.750 C 145.325 106.805 145.280 106.850 145.225 106.850 H 138.525 C 138.470 106.850 138.425 106.805 138.425 106.750 V 103.500 C 138.425 103.400 138.525 103.500 138.425 103.500 H 131.925 C 131.825 103.500 131.925 103.400 131.925 103.500 V 106.750 C 131.925 106.805 131.880 106.850 131.825 106.850 H 125.125 C 125.070 106.850 125.025 106.805 125.025 106.750 V 103.500 C 125.025 103.400 125.125 103.500 125.025 103.500 H 115.325 C 115.270 103.500 115.225 103.455 115.225 103.400 V 98.700 C 115.225 98.600 115.325 98.700 115.225 98.700 H 111.975 C 111.920 98.700 111.875 98.655 111.875 98.600 V 91.900 C 111.875 91.845 111.920 91.800 111.975 91.800 H 115.225 C 115.325 91.800 115.225 91.900 115.225 91.800 V 85.300 C 115.225 85.200 115.325 85.300 115.225 85.300 H 111.975 C 111.920 85.300 111.875 85.255 111.875 85.200 V 78.500 C 111.875 78.445 111.920 78.400 111.975 78.400 H 115.225 C 115.325 78.400 115.225 78.500 115.225 78.400 V 71.900 C 115.225 71.800 115.325 71.900 115.225 71.900 H 111.975 C 111.920 71.900 111.875 71.855 111.875 71.800 V 65.100 C 111.875 65.045 111.920 65.000 111.975 65.000 H 115.225 C 115.325 65.000 115.225 65.100 115.225 65.000 V 58.500 C 115.225 58.400 115.325 58.500 115.225 58.500 H 111.975 C 111.920 58.500 111.875 58.455 111.875 58.400 V 51.700 C 111.875 51.645 111.920 51.600 111.975 51.600 H 115.225 C 115.325 51.600 115.225 51.700 115.225 51.600 V 45.100 C 115.225 45.000 115.325 45.100 115.225 45.100 H 111.975 C 111.920 45.100 111.875 45.055 111.875 45.000 V 38.300 C 111.875 38.245 111.920 38.200 111.975 38.200 H 115.225 C 115.325 38.200 115.225 38.300 115.225 38.200 V 31.700 C 115.225 31.600 115.325 31.700 115.225 31.700 H 111.975 C 111.920 31.700 111.875 31.655 111.875 31.600 V 24.900 C 111.875 24.845 111.920 24.800 111.975 24.800 H 115.225 C 115.325 24.800 115.225 24.900 115.225 24.800 V 20.100 C 115.225 18.327 115.692 16.585 116.578 15.050 C 117.465 13.515 118.740 12.240 120.275 11.353 C 121.810 10.467 123.552 10.000 125.325 10.000 H 208.625 C 208.680 10.000 208.725 10.045 208.725 10.100 V 19.800 C 208.725 19.900 208.625 19.800 208.725 19.800 H 211.975 C 212.030 19.800 212.075 19.845 212.075 19.900 V 26.600 C 212.075 26.655 212.030 26.700 211.975 26.700 H 208.725 C 208.625 26.700 208.725 26.600 208.725 26.700 V 33.200 C 208.725 33.300 208.625 33.200 208.725 33.200 H 211.975 C 212.030 33.200 212.075 33.245 212.075 33.300 V 40.000 C 212.075 40.055 212.030 40.100 211.975 40.100 H 208.725 C 208.625 40.100 208.725 40.000 208.725 40.100 V 46.600 C 208.725 46.700 208.625 46.600 208.725 46.600 H 211.975 C 212.030 46.600 212.075 46.645 212.075 46.700 V 53.400 C 212.075 53.455 212.030 53.500 211.975 53.500 H 208.725 C 208.625 53.500 208.725 53.400 208.725 53.500 V 60.000 C 208.725 60.100 208.625 60.000 208.725 60.000 H 211.975 C 212.030 60.000 212.075 60.045 212.075 60.100 V 66.800 C 212.075 66.855 212.030 66.900 211.975 66.900 H 208.725 C 208.625 66.900 208.725 66.800 208.725 66.900 V 73.400 C 208.725 73.500 208.625 73.400 208.725 73.400 H 211.975 C 212.030 73.400 212.075 73.445 212.075 73.500 V 80.200 C 212.075 80.255 212.030 80.300 211.975 80.300 H 208.725 C 208.625 80.300 208.725 80.200 208.725 80.300 V 86.800 C 208.725 86.900 208.625 86.800 208.725 86.800 H 211.975 C 212.030 86.800 212.075 86.845 212.075 86.900 V 93.600 C 212.075 93.655 212.030 93.700 211.975 93.700 H 208.725 C 208.625 93.700 208.725 93.600 208.725 93.700 V 103.400 C 208.725 103.455 208.680 103.500 208.625 103.500" stroke="rgb(0,0,0)" stroke-width="0.20" />
</g>
<g id="p-8" style="fill:none;stroke-linecap:round;stroke-linejoin:round;">
  <text alignment-baseline="hanging" font-size="4px" style="font-family: sans-serif ; font-weight: normal; font-style: normal; fill: rgb(255,0,0)" text-anchor="middle" transform="matrix( 1.000 0.000 0.000 1.000 263.850 56.525 )" /><path d="M 217.200 103.500 H 226.900 C 227.000 103.500 226.900 103.400 226.900 103.500 V 106.750 C 226.900 106.805 226.945 106.850 227.000 106.850 H 233.700 C 233.755 106.850 233.800 106.805 233.800 106.750 V 103.500 C 233.800 103.400 233.700 103.500 233.800 103.500 H 240.300 C 240.400 103.500 240.300 103.400 240.300 103.500 V 106.750 C 240.300 106.805 240.345 106.850 240.400 106.850 H 247.100 C 247.155 106.850 247.200 106.805 247.200 106.750 V 103.500 C 247.200 103.400 247.100 103.500 247.200 103.500 H 253.700 C 253.800 103.500 253.700 103.400 253.700 103.500 V 106.750 C 253.700 106.805 253.745 106.850 253.800 106.850 H 260.500 C 260.555 106.850 260.600 106.805 260.600 106.750 V 103.500 C 260.600 103.400 260.500 103.500 260.600 103.500 H 267.100 C 267.200 103.500 267.100 103.400 267.100 103.500 V 106.750 C 267.100 106.805 267.145 106.850 267.200 106.850 H 273.900 C 273.955 106.850 274.000 106.805 274.000 106.750 V 103.500 C 274.000 103.400 273.900 103.500 274.000 103.500 H 280.500 C 280.600 103.500 280.500 103.400 280.500 103.500 V 106.750 C 280.500 106.805 280.545 106.850 280.600 106.850 H 287.300 C 287.355 106.850 287.400 106.805 287.400 106.750 V 103.500 C 287.400 103.400 287.300 103.500 287.400 103.500 H 293.900 C 294.000 103.500 293.900 103.400 293.900 103.500 V 106.750 C 293.900 106.805 293.945 106.850 294.000 106.850 H 300.700 C 300.755 106.850 300.800 106.805 300.800 106.750 V 103.500 C 300.800 103.400 300.700 103.500 300.800 103.500 H 310.500 H 313.850 C 313.905 103.500 313.950 103.455 313.950 103.400 V 93.600 C 313.950 93.545 313.905 93.500 313.850 93.500 H 310.600 C 310.500 93.500 310.600 93.600 310.600 93.500 V 87.000 C 310.600 86.900 310.500 87.000 310.600 87.000 H 313.850 C 313.905 87.000 313.950 86.955 313.950 86.900 V 80.200 C 313.950 80.145 313.905 80.100 313.850 80.100 H 310.600 C 310.500 80.100 310.600 80.200 310.600 80.100 V 73.600 C 310.600 73.500 310.500 73.600 310.600 73.600 H 313.850 C 313.905 73.600 313.950 73.555 313.950 73.500 V 66.800 C 313.950 66.745 313.905 66.700 313.850 66.700 H 310.600 C 310.500 66.700 310.600 66.800 310.600 66.700 V 60.200 C 310.600 60.100 310.500 60.200 310.600 60.200 H 313.850 C 313.905 60.200 313.950 60.155 313.950 60.100 V 53.400 C 313.950 53.345 313.905 53.300 313.850 53.300 H 310.600 C 310.500 53.300 310.600 53.400 310.600 53.300 V 46.800 C 310.600 46.700 310.500 46.800 310.600 46.800 H 313.850 C 313.905 46.800 313.950 46.755 313.950 46.700 V 40.000 C 313.950 39.945 313.905 39.900 313.850 39.900 H 310.600 C 310.500 39.900 310.600 40.000 310.600 39.900 V 33.400 C 310.600 33.300 310.500 33.400 310.600 33.400 H 313.850 C 313.905 33.400 313.950 33.355 313.950 33.300 V 26.600 C 313.950 26.545 313.905 26.500 313.850 26.500 H 310.600 C 310.500 26.500 310.600 26.600 310.600 26.500 V 20.000 C 310.600 19.900 310.500 20.000 310.600 20.000 H 313.850 C 313.905 20.000 313.950 19.955 313.950 19.900 V 10.100 C 313.950 10.045 313.905 10.000 313.850 10.000 H 310.500 H 217.200 H 213.850 C 213.795 10.000 213.750 10.045 213.750 10.100 V 19.900 C 213.750 19.955 213.795 20.000 213.850 20.000 H 217.100 C 217.200 20.000 217.100 19.900 217.100 20.000 V 26.500 C 217.100 26.600 217.200 26.500 217.100 26.500 H 213.850 C 213.795 26.500 213.750 26.545 213.750 26.600 V 33.300 C 213.750 33.355 213.795 33.400 213.850 33.400 H 217.100 C 217.200 33.400 217.100 33.300 217.100 33.400 V 39.900 C 217.100 40.000 217.200 39.900 217.100 39.900 H 213.850 C 213.795 39.900 213.750 39.945 213.750 40.000 V 46.700 C 213.750 46.755 213.795 46.800 213.850 46.800 H 217.100 C 217.200 46.800 217.100 46.700 217.100 46.800 V 53.300 C 217.100 53.400 217.200 53.300 217.100 53.300 H 213.850 C 213.795 53.300 213.750 53.345 213.750 53.400 V 60.100 C 213.750 60.155 213.795 60.200 213.850 60.200 H 217.100 C 217.200 60.200 217.100 60.100 217.100 60.200 V 66.700 C 217.100 66.800 217.200 66.700 217.100 66.700 H 213.850 C 213.795 66.700 213.750 66.745 213.750 66.800 V 73.500 C 213.750 73.555 213.795 73.600 213.850 73.600 H 217.100 C 217.200 73.600 217.100 73.500 217.100 73.600 V 80.100 C 217.100 80.200 217.200 80.100 217.100 80.100 H 213.850 C 213.795 80.100 213.750 80.145 213.750 80.200 V 86.900 C 213.750 86.955 213.795 87.000 213.850 87.000 H 217.100 C 217.200 87.000 217.100 86.900 217.100 87.000 V 93.500 C 217.100 93.600 217.200 93.500 217.100 93.500 H 213.850 C 213.795 93.500 213.750 93.545 213.750 93.600 V 103.400 C 213.750 103.455 213.795 103.500 213.850 103.500 H 217.200" stroke="rgb(0,0,0)" stroke-width="0.20" />
</g>
</svg>